<?xml version="1.0" standalone="no"?>
<!DOCTYPE svg PUBLIC "-//W3C//DTD SVG 20010904//EN"
 "http://www.w3.org/TR/2001/REC-SVG-20010904/DTD/svg10.dtd">
<svg version="1.0" xmlns="http://www.w3.org/2000/svg"
 width="260.000000pt" height="260.000000pt" viewBox="0 0 260.000000 260.000000"
 preserveAspectRatio="xMidYMid meet">
<metadata>
Created by potrace 1.11, written by Peter Selinger 2001-2013
</metadata>
<g transform="translate(0.000000,260.000000) scale(0.100000,-0.100000)"
fill="#000000" stroke="none">
<path d="M1157 2482 c-17 -3 -80 -124 -210 -402 -36 -77 -116 -245 -182 -385
-22 -44 -39 -82 -40 -85 -1 -3 -11 -25 -22 -49 -34 -72 -36 -72 181 -69 l191
3 112 225 c61 124 112 231 112 238 1 6 5 12 9 12 8 0 141 -305 347 -795 41
-99 80 -189 85 -200 5 -11 21 -49 36 -85 14 -36 34 -83 44 -105 10 -22 50
-114 90 -205 39 -91 80 -183 90 -205 10 -22 33 -71 50 -110 17 -38 39 -76 48
-82 20 -16 304 -18 333 -2 43 22 41 52 -5 151 -24 51 -56 120 -71 153 -139
306 -171 377 -193 425 -14 30 -26 57 -27 60 -1 3 -13 30 -27 60 -14 30 -75
165 -135 300 -61 135 -122 270 -136 300 -14 30 -48 107 -77 170 -28 63 -62
138 -75 165 -13 28 -43 95 -68 150 -25 55 -59 132 -77 170 -18 39 -42 93 -55
120 -34 77 -40 80 -184 81 -69 0 -134 -2 -144 -4z"/>
<path d="M1210 1172 c-305 -44 -681 -287 -899 -582 -63 -85 -161 -269 -161
-302 0 -10 -4 -18 -9 -18 -7 0 -8 -19 -2 -53 0 -4 10 -16 21 -27 18 -18 33
-20 163 -20 167 0 164 -2 211 110 90 211 173 336 319 481 76 77 215 187 297
236 19 12 77 42 128 67 97 49 110 66 73 100 -17 16 -67 19 -141 8z"/>
</g>
</svg>
